<svg xmlns="http://www.w3.org/2000/svg" aria-hidden="true" style="position:absolute;width:0;height:0;overflow:hidden"><defs><symbol id="icon-arrowDown" viewBox="0 0 32 32"><path fill="none" stroke="#8baa36" stroke-linecap="round" stroke-linejoin="round" stroke-width="5.3333" d="M2.667 9.333 16 22.666 29.333 9.333" style="stroke:var(--color1, #8baa36)"/></symbol><symbol id="icon-arrowRight" viewBox="0 0 32 32"><path fill="none" stroke="#fafafa" stroke-linecap="round" stroke-linejoin="round" stroke-width="2.1895" d="M5.474 16h16.842M16 7.158 24.842 16 16 24.842" style="stroke:var(--color2, #fafafa)"/></symbol><symbol id="icon-arrowUp" viewBox="0 0 32 32"><path fill="none" stroke="#8baa36" stroke-linecap="round" stroke-linejoin="round" stroke-width="5.3333" d="M2.667 22.667 16 9.334l13.333 13.333" style="stroke:var(--color1, #8baa36)"/></symbol><symbol id="icon-camera" viewBox="0 0 32 32"><path fill="#fafafa" d="M16 24.8c2 0 3.7-.7 5.101-2.099S23.2 19.6 23.2 17.6s-.7-3.7-2.099-5.101C19.701 11.1 18 10.4 16 10.4s-3.7.7-5.101 2.099C9.5 13.9 8.8 15.6 8.8 17.6s.7 3.7 2.099 5.101C12.3 24.101 14 24.8 16 24.8zM3.2 30.4c-.88 0-1.633-.313-2.259-.939C.314 28.834 0 28.08 0 27.2V8c0-.88.314-1.633.941-2.259C1.567 5.114 2.32 4.8 3.2 4.8h5.04l2.96-3.2h9.6l2.96 3.2h5.04c.88 0 1.634.314 2.261.941C31.687 6.367 32 7.12 32 8v19.2c0 .88-.313 1.634-.939 2.261-.627.626-1.381.939-2.261.939H3.2z" style="fill:var(--color2, #fafafa)"/></symbol><symbol id="icon-cross" viewBox="0 0 32 32"><path stroke-linecap="round" stroke-linejoin="round" stroke-width="2.6667" d="M25 7 7 25M25 25 7 7"/></symbol><symbol id="icon-email" viewBox="0 0 32 32"><path fill="none" stroke="#fafafa" stroke-linecap="round" stroke-linejoin="round" stroke-width="1.7455" d="M4.364 4.364h23.273c.771.002 1.509.31 2.055.855s.852 1.284.855 2.054v17.455c-.002.771-.31 1.509-.855 2.055s-1.284.852-2.055.855H4.364c-.771-.002-1.509-.31-2.054-.855s-.852-1.284-.855-2.055V7.273c.002-.771.31-1.509.855-2.054s1.284-.852 2.054-.855v0z" style="stroke:var(--color2, #fafafa)"/><path fill="none" stroke="#fafafa" stroke-linecap="round" stroke-linejoin="round" stroke-width="1.7455" d="M30.545 7.273 16 17.455 1.455 7.273" style="stroke:var(--color2, #fafafa)"/></symbol><symbol id="icon-error" viewBox="0 0 32 32"><path fill="#e74a3b" d="M0 16C0 7.162 7.162 0 16 0s16 7.162 16 16c0 8.837-7.163 16-16 16S0 24.837 0 16zm10.938-2.994 2.944 2.938-2.944 2.994c-.581.588-.581 1.538 0 2.069.588.637 1.537.637 2.069 0l2.938-2.888 2.994 2.888c.588.637 1.538.637 2.069 0 .637-.531.637-1.481 0-2.069l-2.888-2.994 2.888-2.938c.637-.531.637-1.481 0-2.069-.531-.581-1.481-.581-2.069 0l-2.994 2.944-2.938-2.944c-.531-.581-1.481-.581-2.069 0-.581.588-.581 1.537 0 2.069z" style="fill:var(--color3, #e74a3b)"/></symbol><symbol id="icon-facebook" viewBox="0 0 32 32"><path fill="#fff" d="M31.238 16.092C31.238 7.626 24.415.762 16 .762S.762 7.626.762 16.092c0 7.651 5.571 13.994 12.857 15.145V20.525h-3.87v-4.433h3.87v-3.377c0-3.841 2.276-5.965 5.756-5.965 1.667 0 3.412.3 3.412.3v3.773h-1.922c-1.892 0-2.484 1.181-2.484 2.395v2.874h4.226l-.675 4.433h-3.55v10.713c7.286-1.15 12.857-7.493 12.857-15.146z" style="fill:var(--color4, #fff)"/></symbol><symbol id="icon-instagram" viewBox="0 0 32 32"><path fill="#fff" d="M22.349 3.301c1.683.005 3.295.676 4.484 1.865s1.86 2.802 1.865 4.484v12.698c-.005 1.683-.676 3.295-1.865 4.484s-2.802 1.86-4.484 1.865H9.651c-1.682-.005-3.295-.676-4.484-1.865s-1.86-2.802-1.865-4.484V9.65c.005-1.682.676-3.295 1.865-4.484s2.802-1.86 4.484-1.865h12.698zm0-2.539H9.651c-4.889 0-8.889 4-8.889 8.889v12.698c0 4.889 4 8.889 8.889 8.889h12.698c4.889 0 8.889-4 8.889-8.889V9.651c0-4.889-4-8.889-8.889-8.889z" style="fill:var(--color4, #fff)"/><path fill="#fff" d="M24.254 9.654c-.377 0-.745-.112-1.058-.321s-.557-.507-.702-.855-.182-.731-.108-1.101c.074-.369.255-.709.521-.975s.606-.448.975-.521c.369-.074.752-.036 1.101.108s.645.388.855.702c.209.313.321.681.321 1.058.001.25-.048.498-.144.73s-.236.442-.413.619-.387.317-.619.413-.479.144-.73.144zM16 10.923c1.005 0 1.987.298 2.822.856s1.486 1.351 1.871 2.28c.384.928.485 1.95.289 2.935s-.68 1.89-1.39 2.601-1.615 1.194-2.601 1.39c-.985.196-2.007.095-2.935-.289s-1.722-1.036-2.28-1.871c-.558-.835-.856-1.817-.856-2.822.001-1.347.537-2.638 1.489-3.59s2.243-1.488 3.59-1.489zm0-2.54c-1.507 0-2.98.447-4.233 1.284s-2.229 2.027-2.806 3.419-.728 2.924-.434 4.402 1.02 2.835 2.085 3.901c1.066 1.066 2.423 1.791 3.901 2.085s3.01.143 4.402-.434c1.392-.577 2.582-1.553 3.419-2.806s1.284-2.726 1.284-4.233c0-2.021-.803-3.959-2.232-5.388s-3.367-2.232-5.387-2.232z" style="fill:var(--color4, #fff)"/></symbol><symbol id="icon-lock" viewBox="0 0 32 32"><path fill="none" stroke="#fff" stroke-linecap="round" stroke-linejoin="round" stroke-width="3.0476" d="M23.619 14.476V9.905c0-4.208-3.411-7.619-7.619-7.619S8.381 5.697 8.381 9.905v4.571M9.6 29.714h12.8c2.56 0 3.84 0 4.818-.498.86-.438 1.559-1.138 1.998-1.998.498-.978.498-2.258.498-4.818v-.61c0-2.56 0-3.84-.498-4.818-.438-.86-1.138-1.559-1.998-1.998-.978-.498-2.258-.498-4.818-.498H9.6c-2.56 0-3.84 0-4.818.498-.86.438-1.559 1.138-1.998 1.998-.498.978-.498 2.258-.498 4.818v.61c0 2.56 0 3.84.498 4.818.438.86 1.138 1.559 1.998 1.998.978.498 2.258.498 4.818.498z" style="stroke:var(--color4, #fff)"/></symbol><symbol id="icon-logo" viewBox="0 0 32 32"><path fill="none" stroke="#fafafa" stroke-linecap="round" stroke-linejoin="round" stroke-width="2.1818" d="M3.201 3.309v5.817c0 1.661.725 3.132 1.848 4.083.549.465.912 1.094.912 1.791v9.71c0 1.079.928 1.956 2.071 1.956s2.071-.876 2.071-1.956V15c0-.698.363-1.326.912-1.791 1.124-.952 1.848-2.422 1.848-4.083v0m-4.832.593V3.2m18.636 1.371c0-.72-.618-1.304-1.38-1.304h-1.38c-2.287 0-4.141 1.751-4.141 3.911V15c0 1.7 1.155 3.133 2.761 3.671v6.039c0 1.079.928 1.956 2.071 1.956s2.071-.876 2.071-1.956V4.57z" style="stroke:var(--color2, #fafafa)"/></symbol><symbol id="icon-pen" viewBox="0 0 32 32"><path stroke-linecap="round" stroke-linejoin="round" stroke-width="2.4471" d="M2.355 25.551c.086-.778.13-1.168.247-1.531.104-.323.252-.63.439-.913.211-.319.487-.596 1.041-1.15L23.451 2.588c1.646-1.646 4.315-1.646 5.961 0s1.646 4.315 0 5.961L10.043 27.918c-.554.554-.831.831-1.15 1.041-.283.187-.59.334-.913.439-.364.118-.753.161-1.531.248l-4.606.512.512-4.606z"/></symbol><symbol id="icon-plus" viewBox="0 0 32 32"><path fill="none" stroke="#fafafa" stroke-linecap="round" stroke-linejoin="round" stroke-width="3.5556" d="M16 6.667v18.667M6.667 16h18.667" style="stroke:var(--color2, #fafafa)"/></symbol><symbol id="icon-search" viewBox="0 0 32 32"><path stroke-linecap="round" stroke-linejoin="round" stroke-width="2.6667" d="M14.667 25.333c5.891 0 10.667-4.776 10.667-10.667S20.558 3.999 14.667 3.999 4 8.775 4 14.666s4.776 10.667 10.667 10.667zM28 28l-5.8-5.8"/></symbol><symbol id="icon-success" viewBox="0 0 32 32"><path fill="#3cbc81" d="M0 16C0 7.162 7.162 0 16 0s16 7.162 16 16c0 8.837-7.163 16-16 16S0 24.837 0 16zm23.237-2.762c.681-.681.681-1.794 0-2.475s-1.794-.681-2.475 0l-6.763 6.762-2.763-2.762c-.681-.681-1.794-.681-2.475 0s-.681 1.794 0 2.475l4 4c.681.681 1.794.681 2.475 0l8-8z" style="fill:var(--color5, #3cbc81)"/></symbol><symbol id="icon-twitter" viewBox="0 0 32 32"><path fill="#fff" d="M32 6.233c-1.2.522-2.47.865-3.77 1.02 1.366-.8 2.393-2.07 2.889-3.573-1.291.755-2.702 1.285-4.171 1.567-.619-.648-1.363-1.164-2.187-1.516s-1.711-.532-2.607-.531c-3.628 0-6.564 2.893-6.564 6.46-.003.496.054.991.169 1.473-2.602-.122-5.149-.786-7.479-1.948S3.888 6.386 2.226 4.38c-.583.983-.891 2.104-.893 3.247 0 2.24 1.169 4.22 2.933 5.38-1.046-.025-2.07-.302-2.985-.807v.08c0 3.133 2.267 5.74 5.267 6.333-.564.15-1.146.227-1.729.227-.414.001-.828-.04-1.234-.12.834 2.567 3.261 4.433 6.137 4.487-2.336 1.801-5.205 2.774-8.155 2.767-.524-.001-1.047-.032-1.567-.093 3.001 1.916 6.489 2.93 10.049 2.92 12.091 0 18.696-9.847 18.696-18.387 0-.28-.007-.56-.021-.833 1.282-.912 2.391-2.045 3.275-3.347z" style="fill:var(--color4, #fff)"/></symbol><symbol id="icon-user" viewBox="0 0 32 32"><path fill="none" stroke="#fff" stroke-linecap="round" stroke-linejoin="round" stroke-width="2.56" d="M26.24 27.52c0-1.786 0-2.679-.22-3.406-.496-1.636-1.777-2.917-3.413-3.413-.727-.22-1.62-.22-3.406-.22h-6.4c-1.786 0-2.679 0-3.406.22-1.636.496-2.917 1.777-3.413 3.413-.22.727-.22 1.62-.22 3.406M21.76 10.24c0 3.181-2.579 5.76-5.76 5.76s-5.76-2.579-5.76-5.76c0-3.181 2.579-5.76 5.76-5.76s5.76 2.579 5.76 5.76z" style="stroke:var(--color4, #fff)"/></symbol><symbol id="icon-warning" viewBox="0 0 32 32"><path fill="#f6c23e" d="M16 0C7.162 0 0 7.162 0 16s7.162 16 16 16c8.837 0 16-7.163 16-16S24.837 0 16 0zm-1.5 9.5c0-.825.675-1.5 1.5-1.5s1.5.672 1.5 1.5v8c0 .828-.672 1.5-1.5 1.5s-1.5-.669-1.5-1.5v-8zM16 25c-1.085 0-1.965-.88-1.965-1.965S14.914 21.07 16 21.07s1.965.88 1.965 1.965C17.963 24.119 17.088 25 16 25z" style="fill:var(--color6, #f6c23e)"/></symbol><symbol id="icon-youtube" viewBox="0 0 32 32"><path fill="#fff" d="M31.794 9.299c0-2.812-2.069-5.075-4.626-5.075C23.705 4.062 20.173 4 16.564 4h-1.125c-3.6 0-7.138.063-10.601.225C2.288 4.225.219 6.5.219 9.312.063 11.536-.004 13.761 0 15.986c-.006 2.225.065 4.452.213 6.681 0 2.812 2.069 5.094 4.619 5.094 3.638.169 7.37.244 11.164.237 3.8.012 7.522-.067 11.164-.237 2.557 0 4.626-2.281 4.626-5.094.15-2.231.219-4.456.213-6.687.014-2.225-.054-4.452-.204-6.681zM12.94 22.118V9.837l9.064 6.137-9.064 6.144z" style="fill:var(--color4, #fff)"/></symbol><symbol id="icon-checkbox" viewBox="0 0 32 32"><path d="M28.444 4.333v23.333H3.555V4.333h24.889zm0-3.333H3.555C1.599 1-.001 2.5-.001 4.333v23.333c0 1.833 1.6 3.333 3.556 3.333h24.889c1.956 0 3.556-1.5 3.556-3.333V4.333C32 2.5 30.4 1 28.444 1z"/></symbol><symbol id="icon-emailEnvelope" viewBox="0 0 32 32"><path d="M28 4H4C2.35 4 1.015 5.35 1.015 7L1 25c0 1.65 1.35 3 3 3h24c1.65 0 3-1.35 3-3V7c0-1.65-1.35-3-3-3zm-.6 6.375-10.605 6.63c-.48.3-1.11.3-1.59 0L4.6 10.375c-.375-.24-.6-.645-.6-1.08C4 8.29 5.095 7.69 5.95 8.215L16 14.5l10.05-6.285c.855-.525 1.95.075 1.95 1.08 0 .435-.225.84-.6 1.08z"/></symbol><symbol id="icon-phoneTube" viewBox="0 0 32 32"><path d="m27.419 20.852-4.201-.48c-1.009-.116-2.002.232-2.713.943l-3.044 3.044C12.78 21.977 8.942 18.156 6.56 13.458l3.06-3.06c.711-.711 1.059-1.704.943-2.713l-.48-4.168C9.885 1.846 8.479.589 6.791.589H3.929C2.06.589.505 2.144.621 4.013c.877 14.126 12.174 25.407 26.284 26.284 1.869.116 3.424-1.439 3.424-3.308v-2.862c.016-1.671-1.241-3.077-2.911-3.275z"/></symbol><symbol id="icon-person" viewBox="0 0 32 32"><path fill="#2196f3" d="M16 16c4.42 0 8-3.58 8-8s-3.58-8-8-8-8 3.58-8 8 3.58 8 8 8zm0 4c-5.34 0-16 2.68-16 8v2c0 1.1.9 2 2 2h28c1.1 0 2-.9 2-2v-2c0-5.32-10.66-8-16-8z" style="fill:var(--color7, #2196f3)"/></symbol><symbol id="icon-send" viewBox="0 0 32 32"><path fill="#fff" d="M32 0 0 18l10.227 3.788L26 7 14.002 23.186l.01.004-.012-.004V32l5.735-6.691L27 28l5-28z" style="fill:var(--color4, #fff)"/></symbol></defs></svg>