<svg xmlns="http://www.w3.org/2000/svg" aria-hidden="true" style="position:absolute;width:0;height:0;overflow:hidden"><defs><symbol id="icon-logo" viewBox="0 0 32 32"><path fill="none" stroke="#fafafa" stroke-linecap="round" stroke-linejoin="round" stroke-width="2.1818" d="M3.201 3.309v5.817c0 1.661.725 3.132 1.848 4.083.549.465.912 1.094.912 1.791v9.71c0 1.079.928 1.956 2.071 1.956s2.071-.876 2.071-1.956V15c0-.698.363-1.326.912-1.791 1.124-.952 1.848-2.422 1.848-4.083v0m-4.832.593V3.2m18.636 1.371c0-.72-.618-1.304-1.38-1.304h-1.38c-2.287 0-4.141 1.751-4.141 3.911V15c0 1.7 1.155 3.133 2.761 3.671v6.039c0 1.079.928 1.956 2.071 1.956s2.071-.876 2.071-1.956V4.57z" style="stroke:var(--color1, #fafafa)"/></symbol></defs></svg>