<svg xmlns="http://www.w3.org/2000/svg" fill="none" viewBox="0 0 44 44"><path stroke="#FAFAFA" stroke-linecap="round" stroke-linejoin="round" stroke-width="3" d="M4.40137 4.55029v8.16001-.1614c0 2.2838.99647 4.3059 2.54147 5.6145.75542.64 1.25461 1.504 1.25461 2.4631v13.3513c0 1.4843 1.27548 2.689 2.84705 2.689 1.5716 0 2.8471-1.2047 2.8471-2.689V20.6265c0-.9591.4991-1.8231 1.2546-2.4631 1.545-1.3086 2.5414-3.3307 2.5414-5.6145V4.55029v7.99861M11.043 13.363V4.3999M36.667 6.28578c0-.98952-.8504-1.79262-1.8981-1.79262h-1.898c-3.1451 0-5.6941 2.40749-5.6941 5.37785V20.6267c0 2.3376 1.5886 4.3076 3.796 5.048v8.3034c0 1.4843 1.2755 2.6889 2.8471 2.6889s2.8471-1.2046 2.8471-2.6889V6.28578Z"/></svg>